# xmcd CD database file
#
# Track frame offsets:
#	150
#	24737
#	72057
#	106495
#	158615
#	180300
#	198395
#	221720
#
# Disc length: 3368 seconds
#
# Revision: 0
# Processed by: cddbd v1.5.1PL0 Copyright (c) Steve Scherf et al.
# Submitted via: CDex 1.51
#
DISCID=670d2608
DTITLE=Fabien Tehericsen - Le Concerto Improvisé
DYEAR=2000
DGENRE=Jazz
TTITLE0=I
TTITLE1=II
TTITLE2=III
TTITLE3=IV
TTITLE4=V
TTITLE5=VI
TTITLE6=VII
TTITLE7=VIII
EXTD=YEAR: 2000
EXTT0=
EXTT1=
EXTT2=
EXTT3=
EXTT4=
EXTT5=
EXTT6=
EXTT7=
PLAYORDER=
